<svg width="53" height="54" viewBox="0 0 53 54" fill="none" xmlns="http://www.w3.org/2000/svg">
<g filter="url(#filter0_d_3316_434)">
<path d="M22.9672 37.5235V33.8457C22.9672 32.9138 23.725 32.1566 24.6637 32.1508H28.1104C29.0533 32.1508 29.8176 32.9096 29.8176 33.8457V37.5129C29.8176 38.3212 30.4745 38.9781 31.2887 38.984H33.6402C34.7384 38.9868 35.7926 38.5557 36.5702 37.7857C37.3478 37.0157 37.7848 35.9701 37.7848 34.8798V24.4327C37.7848 23.552 37.3916 22.7165 36.7111 22.1514L28.7224 15.8086C27.326 14.6991 25.3316 14.735 23.9765 15.8939L16.1596 22.1514C15.447 22.6999 15.021 23.5378 15 24.4327V34.8691C15 37.1417 16.8556 38.984 19.1446 38.984H21.4425C21.8345 38.9868 22.2114 38.8342 22.4896 38.56C22.7678 38.2858 22.9242 37.9127 22.9242 37.5235H22.9672Z" fill="#FACD66"/>
</g>
<defs>
<filter id="filter0_d_3316_434" x="0.609589" y="0.609589" width="51.5656" height="52.7649" filterUnits="userSpaceOnUse" color-interpolation-filters="sRGB">
<feFlood flood-opacity="0" result="BackgroundImageFix"/>
<feColorMatrix in="SourceAlpha" type="matrix" values="0 0 0 0 0 0 0 0 0 0 0 0 0 0 0 0 0 0 127 0" result="hardAlpha"/>
<feOffset/>
<feGaussianBlur stdDeviation="7.19521"/>
<feComposite in2="hardAlpha" operator="out"/>
<feColorMatrix type="matrix" values="0 0 0 0 0.980392 0 0 0 0 0.803921 0 0 0 0 0.4 0 0 0 0.25 0"/>
<feBlend mode="normal" in2="BackgroundImageFix" result="effect1_dropShadow_3316_434"/>
<feBlend mode="normal" in="SourceGraphic" in2="effect1_dropShadow_3316_434" result="shape"/>
</filter>
</defs>
</svg>
