<svg width="35" height="37" viewBox="0 0 35 37" fill="none" xmlns="http://www.w3.org/2000/svg">
<g filter="url(#filter0_d_107_432)">
<path d="M13.9651 24.9219V21.2441C13.9651 20.3122 14.7229 19.555 15.6616 19.5492H19.1083C20.0512 19.5492 20.8156 20.308 20.8156 21.2441V24.9113C20.8156 25.7196 21.4724 26.3765 22.2866 26.3824H24.6381C25.7363 26.3852 26.7906 25.9541 27.5682 25.1841C28.3457 24.4141 28.7827 23.3685 28.7827 22.2782V11.8311C28.7827 10.9504 28.3895 10.1149 27.709 9.54984L19.7204 3.20699C18.3239 2.09755 16.3295 2.13339 14.9744 3.29227L7.15757 9.54984C6.44492 10.0983 6.01897 10.9362 5.99792 11.8311V22.2675C5.99792 24.5401 7.85355 26.3824 10.1426 26.3824H12.4404C12.8324 26.3852 13.2093 26.2326 13.4875 25.9584C13.7657 25.6842 13.9222 25.3111 13.9221 24.9219H13.9651Z" fill="#EFEEE0" fill-opacity="0.25"/>
</g>
<defs>
<filter id="filter0_d_107_432" x="-2.23288" y="0" width="39.2465" height="39.2466" filterUnits="userSpaceOnUse" color-interpolation-filters="sRGB">
<feFlood flood-opacity="0" result="BackgroundImageFix"/>
<feColorMatrix in="SourceAlpha" type="matrix" values="0 0 0 0 0 0 0 0 0 0 0 0 0 0 0 0 0 0 127 0" result="hardAlpha"/>
<feOffset dy="5.23288"/>
<feGaussianBlur stdDeviation="2.61644"/>
<feComposite in2="hardAlpha" operator="out"/>
<feColorMatrix type="matrix" values="0 0 0 0 0 0 0 0 0 0 0 0 0 0 0 0 0 0 0.25 0"/>
<feBlend mode="normal" in2="BackgroundImageFix" result="effect1_dropShadow_107_432"/>
<feBlend mode="normal" in="SourceGraphic" in2="effect1_dropShadow_107_432" result="shape"/>
</filter>
</defs>
</svg>
