<svg width="48" height="54" viewBox="0 0 48 54" fill="none" xmlns="http://www.w3.org/2000/svg">
<g filter="url(#filter0_d_3316_467)">
<g opacity="0.8">
<path d="M19.194 16.0944C19.194 13.2287 21.5243 10.8983 24.39 10.8983C27.2554 10.8983 29.5855 13.2282 29.5861 16.0934C29.5746 18.9048 27.3805 21.1757 24.5849 21.2784H24.5849H24.5848H24.5848H24.5847H24.5847H24.5847H24.5846H24.5846H24.5845H24.5845H24.5845H24.5844H24.5844H24.5844H24.5843H24.5843H24.5842H24.5842H24.5842H24.5841H24.5841H24.5841H24.584H24.584H24.584H24.5839H24.5839H24.5838H24.5838H24.5838H24.5837H24.5837H24.5837H24.5836H24.5836H24.5835H24.5835H24.5835H24.5834H24.5834H24.5834H24.5833H24.5833H24.5833H24.5832H24.5832H24.5832H24.5831H24.5831H24.583H24.583H24.583H24.5829H24.5829H24.5829H24.5828H24.5828H24.5828H24.5827H24.5827H24.5827H24.5826H24.5826H24.5825H24.5825H24.5825H24.5824H24.5824H24.5824H24.5823H24.5823H24.5823H24.5822H24.5822H24.5822H24.5821H24.5821H24.5821H24.582H24.582H24.5819H24.5819H24.5819H24.5818H24.5818H24.5818H24.5817H24.5817H24.5817H24.5816H24.5816H24.5816H24.5815H24.5815H24.5815H24.5814H24.5814H24.5814H24.5813H24.5813H24.5812H24.5812H24.5812H24.5811H24.5811H24.5811H24.581H24.581H24.581H24.5809H24.5809H24.5809H24.5808H24.5808H24.5807H24.5807H24.5807H24.5806H24.5806H24.5806H24.5805H24.5805H24.5805H24.5804H24.5804H24.5804H24.5803H24.5803H24.5802H24.5802H24.5802H24.5801H24.5801H24.5801H24.58H24.58H24.58H24.5799H24.5799H24.5798H24.5798H24.5798H24.5797H24.5797H24.5797H24.5796H24.5796H24.5795H24.5795H24.5795H24.5794H24.5794H24.5794H24.5793H24.5793H24.5792H24.5792H24.5792H24.5791H24.5791H24.5791H24.579H24.579H24.5789H24.5789H24.5789H24.5788H24.5788H24.5787H24.5787H24.5787H24.5786H24.5786H24.5785H24.5785H24.5785H24.5784H24.5784H24.5783H24.5783H24.5783H24.5782H24.5782H24.5781H24.5781H24.5781H24.578H24.578H24.5779H24.5779H24.5779H24.5778H24.5778H24.5777H24.5777H24.5777H24.5776H24.5776H24.5775H24.5775H24.5774H24.5774H24.5774H24.5773H24.5773H24.5772H24.5772H24.5771H24.5771H24.577H24.577H24.577H24.5769H24.5769H24.5768H24.5768H24.5767H24.5767H24.5767H24.5766H24.5766H24.5765H24.5765H24.5764H24.5764H24.5763H24.5763H24.5762H24.5762H24.5761H24.5761H24.5761H24.576H24.576H24.5759H24.5759H24.5758H24.5758H24.5757H24.5757H24.5756H24.5756H24.5755H24.5755H24.5754H24.5754H24.5753H24.5753H24.5752H24.5752H24.5751H24.5751H24.575H24.575H24.5749H24.5749H24.5748H24.5748H24.5747H24.5747H24.5746H24.5746H24.5745H24.5745H24.5744H24.5744H24.5743H24.5742H24.5742H24.5741H24.5741H24.574H24.574H24.5739H24.5739H24.5738H24.5738H24.5737H24.5736H24.5736H24.5735H24.5735H24.5734H24.5734H24.5733H24.5733H24.5732H24.5731H24.5731H24.573H24.573H24.5729H24.5728H24.5728H24.5727H24.5727H24.5726H24.5725H24.5725H24.5724H24.5724H24.5723H24.5722H24.5722H24.5721H24.5721H24.572H24.5719H24.5719H24.5718H24.5717H24.5717H24.5716H24.5716H24.5715H24.5714H24.5714H24.5713H24.5712H24.5712H24.5711H24.571H24.571H24.5709H24.5708H24.5708H24.5707H24.5706H24.5706H24.5705H24.5704H24.5704H24.5703H24.5702H24.5702H24.5701H24.57H24.57H24.5699H24.5697H24.5696H24.5695H24.5693H24.5692H24.569H24.5689H24.5688H24.5686H24.5685H24.5684H24.5682H24.5681H24.5679H24.5678H24.5677H24.5675H24.5674H24.5673H24.5671H24.567H24.5669H24.5667H24.5666H24.5665H24.5663H24.5662H24.5661H24.5659H24.5658H24.5657H24.5655H24.5654H24.5653H24.5651H24.565H24.5649H24.5647H24.5646H24.5645H24.5643H24.5642H24.5641H24.564H24.5638H24.5637H24.5636H24.5634H24.5633H24.5632H24.5631H24.5629H24.5628H24.5627H24.5625H24.5624H24.5623H24.5622H24.562H24.5619H24.5618H24.5617H24.5615H24.5614H24.5613H24.5612H24.561H24.5609H24.5608H24.5607H24.5605H24.5604H24.5603H24.5602H24.56H24.5599H24.5598H24.5597H24.5596H24.5594H24.5593H24.5592H24.5591H24.5589H24.5588H24.5587H24.5586H24.5585H24.5583H24.5582H24.5581H24.558H24.5579H24.5577H24.5576H24.5575H24.5574H24.5573H24.5571H24.557H24.5569H24.5568H24.5567H24.5566H24.5564H24.5563H24.5562H24.5561H24.556H24.5559H24.5557H24.5556H24.5555H24.5554H24.5553H24.5552H24.555H24.5549H24.5548H24.5547H24.5546H24.5545H24.5543H24.5542H24.5541H24.554H24.5539H24.5538H24.5537H24.5535H24.5534H24.5533H24.5532H24.5531H24.553H24.5529H24.5528H24.5526H24.5525H24.5524H24.5523H24.5522H24.5521H24.552H24.5519H24.5517H24.5516H24.5515H24.5514H24.5513H24.5512H24.5511H24.551H24.5508H24.5507H24.5506H24.5505H24.5504H24.5503H24.5502H24.5501H24.55H24.5499H24.5497H24.5496H24.5495H24.5494H24.5493H24.5492H24.5491H24.549H24.5489H24.5488H24.5486H24.5485H24.5484H24.5483H24.5482H24.5481H24.548H24.5479H24.5478H24.5477H24.5476H24.5475H24.5473H24.5472H24.5471H24.547H24.5469H24.5468H24.5467H24.5466H24.5465H24.5464H24.5463H24.5462H24.5461H24.5459H24.5458H24.5457H24.5456H24.5455H24.5454H24.5453H24.5452H24.5451H24.545H24.5449H24.5448H24.5447H24.5446C24.4405 21.2659 24.3301 21.2673 24.2279 21.2774C21.3693 21.1612 19.194 18.8917 19.194 16.0944Z" fill="#FACD66" stroke="black"/>
<path d="M18.0343 24.5513L18.0343 24.5513L18.0321 24.5527C16.4082 25.6396 15.4479 27.159 15.4479 28.8415C15.4479 30.5245 16.4086 32.0318 18.0202 33.1064C19.798 34.2999 22.1068 34.8817 24.39 34.8817C26.6735 34.8817 28.9825 34.2997 30.7605 33.1059L30.7614 33.1053C32.3718 32.019 33.3321 30.5122 33.3322 28.8175L33.3321 28.8135C33.3185 27.1357 32.374 25.6287 30.7591 24.5522C28.9872 23.3709 26.6846 22.7954 24.405 22.7954C22.1252 22.7954 19.8174 23.371 18.0343 24.5513Z" fill="#FACD66" stroke="black"/>
</g>
</g>
<defs>
<filter id="filter0_d_3316_467" x="0.947876" y="0.398331" width="46.8843" height="52.9833" filterUnits="userSpaceOnUse" color-interpolation-filters="sRGB">
<feFlood flood-opacity="0" result="BackgroundImageFix"/>
<feColorMatrix in="SourceAlpha" type="matrix" values="0 0 0 0 0 0 0 0 0 0 0 0 0 0 0 0 0 0 127 0" result="hardAlpha"/>
<feOffset dy="4"/>
<feGaussianBlur stdDeviation="7"/>
<feComposite in2="hardAlpha" operator="out"/>
<feColorMatrix type="matrix" values="0 0 0 0 0.980392 0 0 0 0 0.803922 0 0 0 0 0.4 0 0 0 0.25 0"/>
<feBlend mode="normal" in2="BackgroundImageFix" result="effect1_dropShadow_3316_467"/>
<feBlend mode="normal" in="SourceGraphic" in2="effect1_dropShadow_3316_467" result="shape"/>
</filter>
</defs>
</svg>
