<svg width="53" height="54" viewBox="0 0 53 54" fill="none" xmlns="http://www.w3.org/2000/svg">
<g filter="url(#filter0_d_3316_442)">
<g filter="url(#filter1_d_3316_442)">
<path d="M21.2937 11.3984V14.996H20.3943C20.0825 14.996 19.7827 15.008 19.4949 15.056V11.3984C19.4949 10.9067 19.9026 10.499 20.3943 10.499C20.8859 10.499 21.2937 10.9067 21.2937 11.3984Z" fill="#FACD66"/>
<path d="M32.3864 14.996H20.3944C20.0826 14.996 19.7828 15.008 19.495 15.056C16.4011 15.4157 14.3984 17.7062 14.3984 20.992V29.3864C14.3984 32.984 16.7968 35.3824 20.3944 35.3824H32.3864C35.9841 35.3824 38.3825 32.984 38.3825 29.3864V20.992C38.3825 17.3944 35.9841 14.996 32.3864 14.996ZM21.4497 28.1872C19.7948 28.1872 18.4517 26.8441 18.4517 25.1892C18.4517 23.5343 19.7948 22.1912 21.4497 22.1912C23.1046 22.1912 24.4477 23.5343 24.4477 25.1892C24.4477 26.8441 23.1046 28.1872 21.4497 28.1872ZM29.2445 28.487H28.6449C28.1533 28.487 27.7455 28.0793 27.7455 27.5876C27.7455 27.0959 28.1533 26.6882 28.6449 26.6882H29.2445C29.7362 26.6882 30.1439 27.0959 30.1439 27.5876C30.1439 28.0793 29.7362 28.487 29.2445 28.487ZM33.4417 28.487H32.8421C32.3505 28.487 31.9427 28.0793 31.9427 27.5876C31.9427 27.0959 32.3505 26.6882 32.8421 26.6882H33.4417C33.9334 26.6882 34.3411 27.0959 34.3411 27.5876C34.3411 28.0793 33.9334 28.487 33.4417 28.487ZM33.4417 23.6902H28.6449C28.1533 23.6902 27.7455 23.2825 27.7455 22.7908C27.7455 22.2991 28.1533 21.8914 28.6449 21.8914H33.4417C33.9334 21.8914 34.3411 22.2991 34.3411 22.7908C34.3411 23.2825 33.9334 23.6902 33.4417 23.6902Z" fill="#FACD66"/>
</g>
</g>
<defs>
<filter id="filter0_d_3316_442" x="10.3984" y="10.499" width="31.984" height="32.8834" filterUnits="userSpaceOnUse" color-interpolation-filters="sRGB">
<feFlood flood-opacity="0" result="BackgroundImageFix"/>
<feColorMatrix in="SourceAlpha" type="matrix" values="0 0 0 0 0 0 0 0 0 0 0 0 0 0 0 0 0 0 127 0" result="hardAlpha"/>
<feOffset dy="4"/>
<feGaussianBlur stdDeviation="2"/>
<feComposite in2="hardAlpha" operator="out"/>
<feColorMatrix type="matrix" values="0 0 0 0 0 0 0 0 0 0 0 0 0 0 0 0 0 0 0.25 0"/>
<feBlend mode="normal" in2="BackgroundImageFix" result="effect1_dropShadow_3316_442"/>
<feBlend mode="normal" in="SourceGraphic" in2="effect1_dropShadow_3316_442" result="shape"/>
</filter>
<filter id="filter1_d_3316_442" x="0.00843716" y="0.108993" width="52.764" height="53.6634" filterUnits="userSpaceOnUse" color-interpolation-filters="sRGB">
<feFlood flood-opacity="0" result="BackgroundImageFix"/>
<feColorMatrix in="SourceAlpha" type="matrix" values="0 0 0 0 0 0 0 0 0 0 0 0 0 0 0 0 0 0 127 0" result="hardAlpha"/>
<feOffset dy="4"/>
<feGaussianBlur stdDeviation="7.195"/>
<feComposite in2="hardAlpha" operator="out"/>
<feColorMatrix type="matrix" values="0 0 0 0 0.980392 0 0 0 0 0.803922 0 0 0 0 0.4 0 0 0 0.25 0"/>
<feBlend mode="normal" in2="BackgroundImageFix" result="effect1_dropShadow_3316_442"/>
<feBlend mode="normal" in="SourceGraphic" in2="effect1_dropShadow_3316_442" result="shape"/>
</filter>
</defs>
</svg>
